<svg width="23" height="25" viewBox="0 0 23 25" fill="none" xmlns="http://www.w3.org/2000/svg">
<path d="M4.40922 1.45036C4.73833 1.08627 4.69942 0.533527 4.32233 0.215771C3.94524 -0.101985 3.37276 -0.064425 3.04365 0.299664L1.48272 2.02653C0.597295 3.00607 0.0967667 4.255 0.0686889 5.55485L0.000201036 8.72545C-0.0102352 9.20859 0.386958 9.60843 0.887357 9.61851C1.38776 9.62858 1.80187 9.24508 1.81231 8.76194L1.88079 5.59134C1.90001 4.70197 2.24247 3.84744 2.84829 3.17723L4.40922 1.45036Z" fill="#00B2FF"/>
<path fill-rule="evenodd" clip-rule="evenodd" d="M4.17747 7.61944C4.3453 5.02858 6.57056 3.01023 9.25919 3.01023H9.93274V2.13524C9.93274 1.4909 10.4737 0.96857 11.1411 0.96857C11.8084 0.96857 12.3494 1.4909 12.3494 2.13524V3.01023H13.0229C15.7116 3.01023 17.9368 5.02858 18.1047 7.61944L18.3717 11.7418C18.4735 13.3135 19.02 14.8282 19.9517 16.1207C20.7936 17.2886 20.0441 18.9017 18.5809 19.0712L14.464 19.5482V20.8019C14.464 22.5738 12.9763 24.0102 11.1411 24.0102C9.30587 24.0102 7.81815 22.5738 7.81815 20.8019V19.5482L3.70121 19.0712C2.238 18.9017 1.48857 17.2886 2.33039 16.1207C3.26209 14.8282 3.80861 13.3135 3.91042 11.7418L4.17747 7.61944ZM9.63065 20.8019C9.63065 21.6073 10.3069 22.2602 11.1411 22.2602C11.9753 22.2602 12.6515 21.6073 12.6515 20.8019V19.9269H9.63065V20.8019Z" fill="#00B2FF"/>
<path d="M17.9598 0.215772C17.5827 0.533529 17.5438 1.08627 17.8729 1.45036L19.4339 3.17723C20.0397 3.84744 20.3821 4.70197 20.4013 5.59134L20.4698 8.76194C20.4803 9.24509 20.8944 9.62858 21.3948 9.61851C21.8952 9.60843 22.2924 9.2086 22.2819 8.72545L22.2135 5.55485C22.1854 4.255 21.6848 3.00607 20.7994 2.02653L19.2385 0.299665C18.9094 -0.0644239 18.3369 -0.101984 17.9598 0.215772Z" fill="#00B2FF"/>
</svg>
